SplineFontDB: 3.2
FontName: FBW-Display-RMP-10
FullName: FBW Display-RMP 10
FamilyName: FBW Display-RMP
Weight: Regular
Copyright: Copyright (c) 2022 FlyByWire Simulations\nLicenced under GPLv3
UComments: "2022-1-8: Created with FontForge (http://fontforge.org)"
Version: 001.000
ItalicAngle: 0
UnderlinePosition: -409
UnderlineWidth: 204
Ascent: 3277
Descent: 819
InvalidEm: 0
LayerCount: 2
Layer: 0 0 "Back" 1
Layer: 1 0 "Fore" 0
XUID: [1021 923 1708473057 14877880]
StyleMap: 0x0000
FSType: 0
OS2Version: 0
OS2_WeightWidthSlopeOnly: 0
OS2_UseTypoMetrics: 1
CreationTime: 1641622764
ModificationTime: 1717788344
OS2TypoAscent: 0
OS2TypoAOffset: 1
OS2TypoDescent: 0
OS2TypoDOffset: 1
OS2TypoLinegap: 369
OS2WinAscent: 0
OS2WinAOffset: 1
OS2WinDescent: 0
OS2WinDOffset: 1
HheadAscent: 0
HheadAOffset: 1
HheadDescent: 0
HheadDOffset: 1
OS2Vendor: 'PfEd'
MarkAttachClasses: 1
DEI: 91125
Encoding: ISO8859-1
UnicodeInterp: none
NameList: AGL For New Fonts
DisplaySize: -48
AntiAlias: 1
FitToEm: 0
WinInfo: 0 29 11
BeginPrivate: 0
EndPrivate
BeginChars: 256 256

StartChar: hyphen
Encoding: 45 45 45
Width: 2622
Flags: HW
LayerCount: 2
Fore
SplineSet
328 983 m 1
 1638 983 l 1
 1638 655 l 1
 328 655 l 1
 328 983 l 1
EndSplineSet
Validated: 1
EndChar

StartChar: period
Encoding: 46 46 46
Width: 2622
Flags: HW
LayerCount: 2
Fore
SplineSet
1638 655 m 5
 1638 0 l 5
 983 0 l 5
 983 655 l 5
 1638 655 l 5
EndSplineSet
Validated: 1
EndChar

StartChar: slash
Encoding: 47 47 47
Width: 2622
Flags: HW
LayerCount: 2
Fore
SplineSet
327 659 m 1
 646 659 l 1
 651 659 l 1
 655 663 l 1
 655 1640 l 1
 978 1640 l 1
 982 1644 l 1
 982 2622 l 1
 1305 2622 l 1
 1309 2626 l 1
 1309 3276 l 1
 1636 3276 l 1
 1636 2622 l 1
 1313 2622 l 1
 1309 2618 l 1
 1309 1640 l 1
 986 1640 l 1
 982 1636 l 1
 982 659 l 1
 659 659 l 1
 655 655 l 1
 655 4 l 1
 327 4 l 1
 327 659 l 1
EndSplineSet
EndChar

StartChar: zero
Encoding: 48 48 48
Width: 2622
Flags: HW
LayerCount: 2
Fore
SplineSet
328 3277 m 5
 1638 3277 l 5
 1638 2949 l 5
 1966 2949 l 5
 1966 328 l 5
 1638 328 l 5
 1638 0 l 5
 328 0 l 5
 328 328 l 5
 0 328 l 5
 0 2949 l 5
 328 2949 l 5
 328 3277 l 5
1311 2949 m 5
 655 2949 l 5
 655 328 l 5
 1311 328 l 5
 1311 2949 l 5
EndSplineSet
Validated: 1
EndChar

StartChar: one
Encoding: 49 49 49
Width: 2622
Flags: HWO
HStem: 0.160156 21G<1310.72 1966.08> 1310.88 655.359<0 327.68> 1966.24 655.36<655.36 983.04> 2293.92 655.36<983.04 1310.72> 3256.96 20G<1310.72 1966.08>
VStem: 0 327.68<1310.88 1966.24> 655.36 327.68<1966.24 2293.92> 1310.72 655.359<0.160156 2293.92 2949.28 3276.96>
LayerCount: 2
Fore
SplineSet
1966 0.16015625 m 1x9f
 1311 0.16015625 l 1
 1311 2293.91992188 l 1
 983 2293.91992188 l 1x9f
 983 1966.23925781 l 1
 655 1966.23925781 l 1
 655.360351562 2622 l 1
 983 2622 l 1xaf
 983 2949 l 1
 1310.72070312 2949 l 1
 1310.72070312 3277 l 1
 1966 3277 l 1
 1966 0.16015625 l 1x9f
EndSplineSet
EndChar

StartChar: two
Encoding: 50 50 50
Width: 2622
Flags: HW
LayerCount: 2
Fore
SplineSet
328 2949 m 5
 328 3277 l 5
 1638 3277 l 5
 1638 2949 l 5
 1966 2949 l 5
 1966 1966 l 5
 1638 1966 l 5
 1638 1311 l 5
 1311 1311 l 5
 1311 983 l 5
 983 983 l 5
 983 655 l 5
 655 655 l 5
 655 328 l 5
 1966 328 l 5
 1966 0 l 5
 0 0 l 5
 0 655 l 5
 328 655 l 5
 328 983 l 5
 655 983 l 5
 655 1638 l 5
 983 1638 l 5
 983 1966 l 5
 1311 1966 l 5
 1311 2949 l 5
 655 2949 l 5
 655 2621 l 5
 0 2621 l 5
 0 2949 l 5
 328 2949 l 5
EndSplineSet
EndChar

StartChar: three
Encoding: 51 51 51
Width: 2622
Flags: W
HStem: 0 328<655 1311> 328 328<0 328> 1639 327<655 1311> 2622 327<0 328> 2949 328<655 1311>
VStem: 0 655<328 656 2622 2949> 1311 655<328 1639 1966 2949>
LayerCount: 2
Fore
SplineSet
0 2949 m 1x36
 328 2949 l 1x36
 328 3277 l 1
 1638 3277 l 1
 1638 2949 l 1
 1966 2949 l 1
 1966 1966 l 1
 1638 1966 l 1
 1638 1639 l 1
 1966 1639 l 1
 1966 328 l 1
 1638 328 l 1x6e
 1638 0 l 1
 328 0 l 1xa6
 328 328 l 1
 0 328 l 1
 0 656 l 1
 655 656 l 1x66
 655 328 l 1
 1311 328 l 1
 1311 1639 l 1
 655 1639 l 1
 655 1966 l 1
 1311 1966 l 1
 1311 2949 l 1
 655 2949 l 1xae
 655 2622 l 1
 0 2622 l 1
 0 2949 l 1x36
EndSplineSet
EndChar

StartChar: four
Encoding: 52 52 52
Width: 2622
Flags: HW
LayerCount: 2
Fore
SplineSet
983 2621 m 1
 983 3277 l 1
 1638 3277 l 1
 1638 983 l 1
 1966 983 l 1
 1966 655 l 1
 1638 655 l 1
 1638 0 l 1
 983 0 l 1
 983 655 l 1
 0 655 l 1
 0 1311 l 1
 324 1311 l 1
 328 1315 l 1
 328 1966 l 1
 651 1966 l 1
 655 1970 l 1
 655 2621 l 1
 983 2621 l 1
655 1962 m 1
 655 1311 l 1
 332 1311 l 1
 328 1307 l 1
 328 983 l 1
 983 983 l 1
 983 1966 l 1
 659 1966 l 1
 655 1962 l 1
EndSplineSet
Validated: 1
EndChar

StartChar: five
Encoding: 53 53 53
Width: 2622
Flags: HW
HStem: 0.160156 327.673<327.68 1309.44> 327.84 327.681<0 327.68> 1638.55 327.68<327.68 1309.44> 2949.27 327.376<327.68 1966.08>
VStem: 0 327.68<327.84 655.521 1311.91 1638.55 1966.23 2949.27> 1309.44 656.641<327.833 1638.55>
LayerCount: 2
Fore
SplineSet
1966 3277 m 1
 1966 2949.2734375 l 1
 328 2949.2734375 l 1
 328 1966 l 1
 1638 1966 l 1
 1638 1638.55371094 l 1
 1966 1638.55371094 l 1
 1966 327.83984375 l 1
 1638 327.83984375 l 1
 1638 0.16015625 l 1
 328 0.16015625 l 1
 328 327.83984375 l 1
 655 327.83984375 l 1
 1309 327.83984375 l 1
 1309 1638.55371094 l 1
 655 1638.55371094 l 1
 328 1638.55371094 l 1
 328 1312 l 1
 0 1312 l 1
 0 3277 l 1
 1966 3277 l 1
16 656 m 2
 311 656 l 2
 320 656 328 648 328 639 c 2
 328 344 l 2
 328 335 320 327.83984375 311 327.83984375 c 2
 16 327.83984375 l 2
 7 327.83984375 0 335 0 344 c 2
 0 639 l 2
 0 648 7 656 16 656 c 2
EndSplineSet
EndChar

StartChar: six
Encoding: 54 54 54
Width: 2622
InSpiro: 1
Flags: HW
LayerCount: 2
Fore
SplineSet
1966 2949 m 1
 1966 2621 l 1
 1311 2621 l 1
 1311 2949 l 1
 655 2949 l 1
 655 1966 l 1
 1638 1966 l 1
 1638 1638 l 1
 1966 1638 l 1
 1966 328 l 1
 1638 328 l 1
 1638 0 l 1
 328 0 l 1
 328 328 l 1
 0 328 l 1
 0 2949 l 1
 328 2949 l 1
 328 3277 l 1
 1638 3277 l 1
 1638 2949 l 1
 1966 2949 l 1
  Spiro
    1966 2949 v
    1966 2621 v
    1311 2621 v
    1311 2949 v
    655 2949 v
    655 1966 v
    1638 1966 v
    1638 1638 v
    1966 1638 v
    1966 328 v
    1638 328 v
    1638 0 v
    328 0 v
    328 328 v
    0 328 v
    0 2949 v
    328 2949 v
    328 3277 v
    1638 3277 v
    1638 2949 v
    0 0 z
  EndSpiro
655 1638 m 1
 655 328 l 1
 1311 328 l 1
 1311 1638 l 1
 655 1638 l 1
  Spiro
    655 1638 v
    655 328 v
    1311 328 v
    1311 1638 v
    0 0 z
  EndSpiro
EndSplineSet
Validated: 1
EndChar

StartChar: seven
Encoding: 55 55 55
Width: 2622
Flags: HW
LayerCount: 2
Fore
SplineSet
1966 3277 m 5
 1966 2621 l 5
 1638 2621 l 5
 1638 1966 l 5
 1311 1966 l 5
 1311 983 l 5
 983 983 l 5
 983 0 l 5
 328 0 l 5
 328 983 l 5
 655 983 l 5
 655 1966 l 5
 983 1966 l 5
 983 2621 l 5
 1311 2621 l 5
 1311 2949 l 5
 0 2949 l 5
 0 3277 l 5
 1966 3277 l 5
EndSplineSet
Validated: 1
EndChar

StartChar: colon
Encoding: 58 58 58
Width: 2622
Flags: HW
LayerCount: 2
Fore
SplineSet
1638 1966 m 5
 1638 1311 l 5
 983 1311 l 5
 983 1966 l 5
 1638 1966 l 5
1638 655 m 5
 1638 0 l 5
 983 0 l 5
 983 655 l 5
 1638 655 l 5
EndSplineSet
Validated: 1
EndChar

StartChar: A
Encoding: 65 65 65
Width: 2622
Flags: HW
LayerCount: 2
Fore
SplineSet
0 0 m 5
 0 2621 l 5
 328 2621 l 5
 328 2949 l 5
 655 2949 l 5
 655 3277 l 5
 1311 3277 l 5
 1311 2949 l 5
 1638 2949 l 5
 1638 2621 l 5
 1966 2621 l 5
 1966 0 l 5
 1311 0 l 5
 1311 655 l 5
 655 655 l 5
 655 0 l 5
 0 0 l 5
655 2621 m 5
 655 1311 l 5
 1311 1311 l 5
 1311 2621 l 5
 655 2621 l 5
EndSplineSet
Validated: 1
EndChar

StartChar: B
Encoding: 66 66 66
Width: 2622
Flags: HW
LayerCount: 2
Fore
SplineSet
1638 3277 m 5
 1638 2949 l 5
 1966 2949 l 5
 1966 1966 l 5
 1638 1966 l 5
 1638 1311 l 5
 1966 1311 l 5
 1966 328 l 5
 1638 328 l 5
 1638 0 l 5
 0 0 l 5
 0 3277 l 5
 1638 3277 l 5
1311 2621 m 5
 655 2621 l 5
 655 1966 l 5
 1311 1966 l 5
 1311 2621 l 5
655 1311 m 5
 655 655 l 5
 1311 655 l 5
 1311 1311 l 5
 655 1311 l 5
EndSplineSet
Validated: 1
EndChar

StartChar: C
Encoding: 67 67 67
Width: 2622
Flags: HW
LayerCount: 2
Fore
SplineSet
0 655 m 5
 0 2621 l 5
 328 2621 l 5
 328 2949 l 5
 655 2949 l 5
 655 3277 l 5
 1638 3277 l 5
 1638 2949 l 5
 1966 2949 l 5
 1966 2294 l 5
 1638 2294 l 5
 1638 2621 l 5
 655 2621 l 5
 655 655 l 5
 1638 655 l 5
 1638 983 l 5
 1966 983 l 5
 1966 328 l 5
 1638 328 l 5
 1638 0 l 5
 655 0 l 5
 655 328 l 5
 328 328 l 5
 328 655 l 5
 0 655 l 5
EndSplineSet
EndChar

StartChar: D
Encoding: 68 68 68
Width: 2622
Flags: HW
LayerCount: 2
Fore
SplineSet
0 0 m 5
 0 3277 l 5
 1311 3277 l 5
 1311 2949 l 5
 1638 2949 l 5
 1638 2621 l 5
 1966 2621 l 5
 1966 655 l 5
 1638 655 l 5
 1638 328 l 5
 1311 328 l 5
 1311 0 l 5
 0 0 l 5
655 2621 m 5
 655 655 l 5
 983 655 l 5
 983 983 l 5
 1311 983 l 5
 1311 2294 l 5
 983 2294 l 5
 983 2621 l 5
 655 2621 l 5
EndSplineSet
EndChar

StartChar: E
Encoding: 69 69 69
Width: 2622
Flags: HW
LayerCount: 2
Fore
SplineSet
0 3277 m 5
 1966 3277 l 5
 1966 2621 l 5
 655 2621 l 5
 655 1966 l 5
 1638 1966 l 5
 1638 1311 l 5
 655 1311 l 5
 655 655 l 5
 1966 655 l 5
 1966 0 l 5
 0 0 l 5
 0 3277 l 5
EndSplineSet
EndChar

StartChar: F
Encoding: 70 70 70
Width: 2622
Flags: HW
LayerCount: 2
Fore
SplineSet
0 3277 m 5
 1966 3277 l 5
 1966 2621 l 5
 655 2621 l 5
 655 1966 l 5
 1638 1966 l 5
 1638 1311 l 5
 655 1311 l 5
 655 0 l 5
 0 0 l 5
 0 3277 l 5
EndSplineSet
EndChar

StartChar: G
Encoding: 71 71 71
Width: 2622
Flags: HW
LayerCount: 2
Fore
SplineSet
0 655 m 5
 0 2621 l 5
 328 2621 l 5
 328 2949 l 5
 655 2949 l 5
 655 3277 l 5
 1638 3277 l 5
 1638 2949 l 5
 1966 2949 l 5
 1966 2294 l 5
 1311 2294 l 5
 1311 2621 l 5
 655 2621 l 5
 655 655 l 5
 1311 655 l 5
 1311 1311 l 5
 983 1311 l 5
 983 1966 l 5
 1638 1966 l 5
 1966 1966 l 5
 1966 328 l 5
 1638 328 l 5
 1638 0 l 5
 655 0 l 5
 655 328 l 5
 328 328 l 5
 328 655 l 5
 0 655 l 5
EndSplineSet
EndChar

StartChar: I
Encoding: 73 73 73
Width: 2622
Flags: HW
LayerCount: 2
Fore
SplineSet
1311 3277 m 5
 1311 0 l 5
 655 0 l 5
 655 3277 l 5
 1311 3277 l 5
EndSplineSet
Validated: 1
EndChar

StartChar: K
Encoding: 75 75 75
Width: 2622
Flags: HW
LayerCount: 2
Fore
SplineSet
655 3277 m 5
 655 2294 l 5
 983 2294 l 5
 983 2621 l 5
 1311 2621 l 5
 1311 2949 l 5
 1638 2949 l 5
 1638 3277 l 5
 1966 3277 l 5
 1966 2621 l 5
 1638 2621 l 5
 1638 2294 l 5
 1311 2294 l 5
 1311 1966 l 5
 983 1966 l 5
 983 1311 l 5
 1311 1311 l 5
 1311 983 l 5
 1638 983 l 5
 1638 655 l 5
 1966 655 l 5
 1966 0 l 5
 1638 0 l 5
 1638 328 l 5
 1311 328 l 5
 1311 655 l 5
 983 655 l 5
 983 983 l 5
 655 983 l 5
 655 0 l 5
 0 0 l 5
 0 3277 l 5
 655 3277 l 5
EndSplineSet
Validated: 1
EndChar

StartChar: L
Encoding: 76 76 76
Width: 2622
Flags: HW
LayerCount: 2
Fore
SplineSet
0 0 m 5
 0 3277 l 5
 655 3277 l 5
 655 655 l 5
 1966 655 l 5
 1966 0 l 5
 0 0 l 5
EndSplineSet
Validated: 1
EndChar

StartChar: M
Encoding: 77 77 77
Width: 2622
Flags: HW
LayerCount: 2
Fore
SplineSet
1966 3277 m 5
 1966 0 l 5
 1638 0 l 5
 1638 2294 l 5
 1311 2294 l 5
 1311 1311 l 5
 655 1311 l 5
 655 2294 l 5
 328 2294 l 5
 328 0 l 5
 0 0 l 5
 0 3277 l 5
 655 3277 l 5
 655 2621 l 5
 1311 2621 l 5
 1311 3277 l 5
 1966 3277 l 5
EndSplineSet
EndChar

StartChar: N
Encoding: 78 78 78
Width: 2622
Flags: HW
LayerCount: 2
Fore
SplineSet
0 3277 m 5
 655 3277 l 5
 655 2621 l 5
 983 2621 l 5
 983 2294 l 5
 1311 2294 l 5
 1311 3277 l 5
 1966 3277 l 5
 1966 0 l 5
 1311 0 l 5
 1311 655 l 5
 983 655 l 5
 983 983 l 5
 655 983 l 5
 655 0 l 5
 0 0 l 5
 0 3277 l 5
EndSplineSet
EndChar

StartChar: O
Encoding: 79 79 79
Width: 2622
Flags: HW
LayerCount: 2
Fore
SplineSet
328 3277 m 5
 1638 3277 l 5
 1638 2949 l 5
 1966 2949 l 5
 1966 328 l 5
 1638 328 l 5
 1638 0 l 5
 328 0 l 5
 328 328 l 5
 0 328 l 5
 0 2949 l 5
 328 2949 l 5
 328 3277 l 5
1311 2621 m 5
 655 2621 l 5
 655 655 l 5
 1311 655 l 5
 1311 2621 l 5
EndSplineSet
EndChar

StartChar: P
Encoding: 80 80 80
Width: 2622
Flags: HW
LayerCount: 2
Fore
SplineSet
0 0 m 5
 0 3277 l 5
 1638 3277 l 5
 1638 2949 l 5
 1966 2949 l 5
 1966 1638 l 5
 1638 1638 l 5
 1638 1311 l 5
 655 1311 l 5
 655 0 l 5
 0 0 l 5
655 1966 m 5
 1311 1966 l 5
 1311 2621 l 5
 655 2621 l 5
 655 1966 l 5
EndSplineSet
EndChar

StartChar: Q
Encoding: 81 81 81
Width: 2622
Flags: HW
LayerCount: 2
Fore
SplineSet
1638 3277 m 1
 1638 2949 l 1
 1966 2949 l 1
 1966 0 l 1
 328 0 l 1
 328 328 l 1
 0 328 l 1
 0 2949 l 1
 328 2949 l 1
 328 3277 l 1
 1638 3277 l 1
655 2621 m 1
 655 1311 l 1
 983 1311 l 1
 983 987 l 1
 987 983 l 1
 1311 983 l 1
 1311 2622 l 1
 655 2621 l 1
979 983 m 1
 655 983 l 1
 655 655 l 1
 983 655 l 1
 983 979 l 1
 979 983 l 1
EndSplineSet
Validated: 1
EndChar

StartChar: R
Encoding: 82 82 82
Width: 2622
Flags: HW
LayerCount: 2
Fore
SplineSet
0 0 m 5
 0 3277 l 5
 1638 3277 l 5
 1638 2949 l 5
 1966 2949 l 5
 1966 1638 l 5
 1638 1638 l 5
 1638 1311 l 5
 1966 1311 l 5
 1966 0 l 5
 1311 0 l 5
 1311 1311 l 5
 655 1311 l 5
 655 0 l 5
 0 0 l 5
655 1966 m 5
 1311 1966 l 5
 1311 2621 l 5
 655 2621 l 5
 655 1966 l 5
EndSplineSet
EndChar

StartChar: S
Encoding: 83 83 83
Width: 2622
Flags: HW
LayerCount: 2
Fore
SplineSet
1638 328 m 1
 1638 0 l 1
 328 0 l 1
 328 328 l 1
 0 328 l 1
 0 983 l 1
 328 983 l 1
 328 655 l 1
 1311 655 l 1
 1311 1311 l 1
 328 1311 l 1
 328 1638 l 1
 0 1638 l 1
 0 1966 l 1
 0 2949 l 1
 328 2949 l 1
 328 3277 l 1
 1638 3277 l 1
 1638 2949 l 1
 1966 2949 l 1
 1966 2294 l 1
 1638 2294 l 1
 1638 2621 l 1
 655 2621 l 1
 655 1966 l 1
 1638 1966 l 1
 1638 1638 l 1
 1966 1638 l 1
 1966 328 l 1
 1638 328 l 1
EndSplineSet
Validated: 1
EndChar

StartChar: T
Encoding: 84 84 84
Width: 2622
Flags: HW
LayerCount: 2
Fore
SplineSet
1787 3277 m 5
 1787 2681 l 5
 1192 2681 l 5
 1192 0 l 5
 596 0 l 5
 596 2681 l 5
 0 2681 l 5
 0 3277 l 5
 1787 3277 l 5
EndSplineSet
EndChar

StartChar: U
Encoding: 85 85 85
Width: 2622
Flags: HW
LayerCount: 2
Fore
SplineSet
1966 328 m 5
 1638 328 l 5
 1638 0 l 5
 328 0 l 5
 328 328 l 5
 0 328 l 5
 0 3277 l 5
 655 3277 l 5
 655 655 l 5
 1311 655 l 5
 1311 3277 l 5
 1966 3277 l 5
 1966 328 l 5
EndSplineSet
Validated: 1
EndChar

StartChar: V
Encoding: 86 86 86
Width: 2622
Flags: HW
LayerCount: 2
Fore
SplineSet
1966 983 m 5
 1638 983 l 5
 1638 328 l 5
 1311 328 l 5
 1311 0 l 5
 655 0 l 5
 655 328 l 5
 328 328 l 5
 328 983 l 5
 0 983 l 5
 0 3277 l 5
 655 3277 l 5
 655 655 l 5
 1311 655 l 5
 1311 3277 l 5
 1966 3277 l 5
 1966 983 l 5
EndSplineSet
EndChar

StartChar: W
Encoding: 87 87 87
Width: 2622
Flags: HW
LayerCount: 2
Fore
SplineSet
0 0 m 5
 0 3277 l 5
 328 3277 l 5
 328 983 l 5
 655 983 l 5
 655 1638 l 5
 1311 1638 l 5
 1311 983 l 5
 1638 983 l 5
 1638 3277 l 5
 1966 3277 l 5
 1966 0 l 5
 1311 0 l 5
 1311 655 l 5
 655 655 l 5
 655 0 l 5
 0 0 l 5
EndSplineSet
Validated: 1
EndChar

StartChar: Y
Encoding: 89 89 89
Width: 2622
Flags: HW
LayerCount: 2
Fore
SplineSet
0 2294 m 5
 0 3277 l 5
 328 3277 l 5
 328 2621 l 5
 655 2621 l 5
 655 1966 l 5
 1311 1966 l 5
 1311 2621 l 5
 1638 2621 l 5
 1638 3277 l 5
 1966 3277 l 5
 1966 2294 l 5
 1638 2294 l 5
 1638 1638 l 5
 1311 1638 l 5
 1311 0 l 5
 655 0 l 5
 655 1638 l 5
 328 1638 l 5
 328 2294 l 5
 0 2294 l 5
EndSplineSet
Validated: 1
EndChar

